<svg xmlns="http://www.w3.org/2000/svg" viewBox="0 0 512 512">
<defs><filter id="red" x="-30%" y="-30%" width="160%" height="160%"><feColorMatrix type="matrix" values="1.15 0 0 0 0.15 0 0.20 0 0 0 0 0 0 0 0 0 0 0 1 0"/><feDropShadow dx="0" dy="0" stdDeviation="10" flood-color="#ff1f1f" flood-opacity=".58"/></filter></defs>
<rect width="512" height="512" rx="76" fill="#050607"/>
<image href="/assets/logo.png" x="32" y="32" width="448" height="448" preserveAspectRatio="xMidYMid meet" filter="url(#red)"/>
<g fill="none" stroke="#ff3535" stroke-width="15" stroke-linecap="round" stroke-linejoin="round">
<path d="M88 76l48 42-27 44 54 47-23 53 52 37-34 58"/>
<path d="M392 72l-42 54 27 40-50 39 29 49-49 43 31 67"/>
<path d="M238 54l17 82-35 38 39 59-31 64 34 74"/>
</g>
<g stroke="#0a0505" stroke-width="8" stroke-linecap="round"><path d="M105 95l36 29"/><path d="M380 104l-25 32"/><path d="M254 127l-18 40"/></g>
</svg>
